<?xml version="1.0" standalone="no"?>
<!DOCTYPE svg PUBLIC "-//W3C//DTD SVG 20010904//EN"
 "http://www.w3.org/TR/2001/REC-SVG-20010904/DTD/svg10.dtd">
<svg version="1.0" xmlns="http://www.w3.org/2000/svg"
 width="500.000000pt" height="500.000000pt" viewBox="0 0 500.000000 500.000000"
 preserveAspectRatio="xMidYMid meet">

<g transform="translate(0.000000,500.000000) scale(0.100000,-0.100000)"
fill="#000000" stroke="none">
<path d="M2373 4300 c-52 -21 -59 -103 -13 -147 l30 -28 0 -221 c0 -248 5
-234 -76 -234 l-44 0 0 124 c0 98 3 126 15 136 21 17 19 63 -3 83 -25 23 -58
21 -82 -3 -24 -24 -25 -49 -5 -76 11 -14 14 -51 15 -150 l0 -131 -37 -6 c-21
-3 -53 -9 -70 -12 l-33 -7 0 204 c0 189 1 206 19 222 71 64 33 166 -62 166
-52 0 -87 -35 -87 -88 0 -42 30 -92 56 -92 12 0 14 -36 14 -219 l0 -218 -50
-21 -50 -21 0 157 c1 122 4 161 15 176 34 45 5 106 -51 106 -46 0 -72 -70 -39
-104 13 -13 15 -44 13 -192 l-3 -177 -62 -37 -62 -38 -20 22 c-20 21 -21 34
-21 219 0 108 -4 198 -9 201 -5 3 -7 24 -4 45 5 33 1 44 -20 65 -45 45 -116
32 -136 -24 -18 -53 10 -97 72 -109 l32 -7 3 -199 2 -199 27 -28 27 -29 -47
-47 -47 -47 -55 55 -55 54 0 70 c0 56 4 74 20 91 12 12 23 38 26 57 5 29 1 41
-23 68 -71 79 -190 4 -149 -94 8 -20 28 -42 45 -51 31 -15 31 -16 31 -98 l0
-82 55 -48 c30 -27 55 -54 55 -61 0 -7 -13 -24 -28 -39 -21 -21 -38 -27 -70
-27 -38 0 -48 6 -117 71 -73 69 -75 73 -75 119 0 34 5 52 20 65 24 22 25 43 4
73 -23 34 -83 27 -104 -11 -14 -25 -13 -30 3 -58 10 -18 17 -51 17 -83 l0 -53
90 -87 c82 -79 93 -86 130 -86 22 0 40 -2 40 -5 0 -3 -12 -27 -27 -55 l-28
-50 -75 0 c-73 0 -76 1 -102 34 -59 74 -151 50 -182 -47 -8 -25 17 -81 45
-101 49 -34 137 -9 154 44 5 17 15 20 67 20 53 0 60 -2 55 -17 -3 -10 -20 -61
-38 -113 -17 -52 -33 -101 -35 -107 -3 -10 -42 -13 -155 -13 -149 0 -151 0
-171 25 -25 32 -70 33 -98 3 -23 -25 -25 -40 -9 -69 17 -33 54 -41 100 -23 32
14 65 15 175 11 75 -3 138 -8 140 -10 3 -3 2 -27 -2 -54 l-6 -50 -184 -5
c-101 -3 -201 -2 -222 3 -20 4 -50 11 -65 15 -59 14 -95 -75 -45 -110 30 -22
42 -20 76 9 l30 25 204 -2 203 -3 0 -35 0 -35 -107 -3 c-102 -3 -108 -4 -108
-24 0 -21 -49 -108 -61 -108 -4 0 -12 7 -19 15 -15 18 -71 20 -88 3 -18 -18
-14 -73 6 -91 23 -21 66 -22 82 -2 11 13 39 15 168 13 l155 -3 32 -90 c17 -49
35 -98 40 -108 6 -15 0 -17 -54 -17 -52 0 -62 3 -72 23 -31 61 -105 76 -157
32 -38 -32 -48 -72 -29 -116 18 -45 38 -60 86 -66 37 -5 44 -2 83 36 42 41 43
42 107 39 l64 -3 38 -60 c21 -33 38 -63 38 -67 1 -5 -15 -8 -35 -8 -31 0 -48
-11 -122 -79 -73 -67 -89 -78 -105 -69 -48 25 -127 -23 -127 -79 0 -41 27 -81
63 -92 57 -19 112 16 123 78 5 27 25 55 77 109 70 71 72 72 123 72 47 0 54 -3
77 -33 l26 -34 -65 -64 -64 -63 0 -60 c0 -56 -2 -61 -37 -91 -46 -39 -51 -90
-14 -129 48 -51 135 -37 147 24 4 19 39 59 111 125 l104 97 22 -19 c12 -11 39
-30 60 -42 l37 -23 0 -175 c0 -142 -3 -177 -15 -189 -20 -20 -19 -68 1 -88 17
-18 56 -21 84 -6 29 16 34 59 11 91 -19 26 -21 42 -21 179 0 82 2 150 4 150 2
0 24 -9 50 -20 l46 -21 0 -194 0 -194 -29 -15 c-35 -18 -55 -64 -46 -105 8
-37 58 -81 91 -81 64 0 118 62 107 122 -3 14 -18 39 -34 54 l-29 28 0 184 c0
143 3 183 13 179 6 -3 37 -11 68 -18 l56 -12 7 -141 c6 -131 5 -142 -14 -168
-35 -47 -22 -97 31 -113 26 -9 67 18 75 49 6 25 -10 66 -26 66 -6 0 -10 59
-10 145 l0 145 38 0 c20 0 47 -3 60 -6 22 -6 22 -7 22 -229 l0 -223 -30 -30
c-68 -69 -5 -172 87 -141 39 12 53 34 53 82 0 23 -8 41 -25 57 l-25 23 0 234
0 233 55 0 55 0 0 -139 c0 -111 -3 -141 -15 -151 -20 -16 -19 -74 1 -94 18
-18 56 -21 85 -6 23 13 26 72 4 90 -12 10 -15 41 -15 161 l0 149 28 6 c15 3
43 10 62 15 19 5 38 9 43 9 4 0 7 -80 7 -178 l0 -178 -30 -26 c-25 -22 -30
-34 -30 -73 0 -38 5 -52 29 -76 33 -33 67 -37 111 -14 36 19 50 43 50 88 0 37
-32 87 -56 87 -12 0 -14 33 -14 198 l0 197 45 16 c24 9 47 14 50 11 3 -3 5
-69 5 -146 -1 -108 -4 -146 -15 -160 -34 -45 -9 -106 44 -106 59 0 84 50 49
96 -21 26 -23 40 -26 186 l-4 157 73 46 c39 26 78 49 85 52 21 8 20 -379 0
-396 -33 -27 -26 -99 12 -127 24 -18 83 -17 110 2 56 39 43 122 -23 149 l-35
15 0 208 0 208 40 39 39 38 78 -70 c73 -66 78 -73 81 -116 3 -37 -1 -49 -22
-71 -34 -33 -34 -75 0 -115 19 -23 34 -31 59 -31 83 0 119 96 56 152 -26 24
-31 35 -31 75 0 46 -2 50 -86 134 l-87 87 24 31 c20 25 31 30 69 30 42 0 50
-4 123 -74 49 -46 77 -81 77 -95 0 -35 27 -76 58 -89 59 -25 123 18 125 84 1
31 -5 43 -32 67 -33 30 -58 33 -104 13 -13 -5 -37 12 -100 74 -62 61 -90 81
-110 81 -15 0 -27 2 -27 5 0 2 16 34 36 70 l36 65 68 0 c61 0 69 -2 84 -25 41
-62 124 -69 170 -14 59 70 15 169 -75 169 -36 0 -47 -6 -80 -40 -35 -37 -43
-40 -89 -40 -37 0 -50 3 -47 13 3 6 20 56 38 110 l32 97 161 0 c126 -1 165 -4
180 -15 42 -32 96 -5 96 47 0 49 -69 78 -104 43 -26 -26 -50 -17 -79 30 -15
25 -27 55 -27 65 0 19 -7 20 -100 20 l-100 0 0 40 0 40 206 0 206 0 31 -26
c49 -41 107 -15 107 47 0 45 -67 78 -98 47 -8 -8 -75 -10 -229 -9 -120 1 -220
4 -222 7 -6 6 -20 98 -15 103 2 2 73 6 157 8 130 4 159 2 186 -12 71 -36 136
40 81 95 -27 27 -62 25 -90 -5 -23 -25 -26 -25 -186 -25 l-162 0 -12 47 c-6
27 -24 81 -40 120 -17 46 -24 73 -16 74 95 7 107 5 123 -22 35 -58 118 -67
164 -18 52 56 34 135 -38 166 -45 18 -94 3 -124 -38 -19 -28 -24 -29 -93 -29
l-73 0 -32 51 c-17 28 -31 52 -31 55 0 2 34 4 76 4 l76 0 74 72 74 71 0 69 c0
55 4 75 22 98 18 25 20 34 10 54 -21 47 -89 48 -110 3 -12 -24 -11 -31 2 -52
10 -16 16 -47 16 -88 l0 -64 -59 -56 -60 -57 -79 0 -80 0 -36 40 c-20 22 -36
43 -36 47 0 3 27 34 60 69 l60 62 0 64 c0 61 1 63 33 79 66 32 65 127 -2 161
-39 19 -86 10 -113 -23 -24 -28 -23 -88 2 -119 14 -18 20 -41 20 -85 0 -60 -1
-61 -53 -113 l-52 -52 -74 60 c-40 34 -104 79 -141 101 -38 22 -71 46 -73 53
-3 7 -6 80 -6 162 -2 148 -1 151 24 178 31 34 32 56 2 84 -27 26 -54 28 -85 6
-26 -18 -30 -75 -7 -94 12 -10 15 -41 15 -162 l0 -150 -25 6 c-13 3 -36 11
-50 16 l-25 10 0 211 0 211 30 28 c24 22 30 36 30 69 0 57 -34 91 -90 91 -87
0 -121 -103 -55 -164 25 -23 25 -24 25 -226 0 -160 -3 -201 -13 -197 -7 2 -38
10 -70 17 l-57 11 0 128 c0 102 3 131 15 141 37 31 5 100 -47 100 -48 0 -79
-70 -43 -100 12 -10 15 -38 15 -136 0 -139 3 -134 -79 -118 l-31 7 0 226 0
226 25 24 c18 17 25 34 25 63 0 69 -59 105 -127 78z m65 -84 c-2 -13 -10 -21
-23 -21 -23 0 -33 34 -14 45 20 13 40 -1 37 -24z m-380 -82 c4 -29 -23 -51
-43 -34 -16 13 -20 42 -8 54 14 14 48 1 51 -20z m-450 -182 c3 -17 -2 -22 -17
-22 -14 0 -21 6 -21 18 0 38 33 41 38 4z m-150 -298 c2 -11 -3 -26 -11 -33
-29 -24 -70 17 -46 46 17 20 53 12 57 -13z m1992 11 c19 -23 -15 -59 -41 -44
-19 10 -25 39 -12 52 11 12 40 7 53 -8z m-789 -125 c207 -44 373 -135 529
-290 212 -210 306 -418 317 -701 6 -151 -4 -229 -43 -354 -92 -286 -293 -525
-549 -651 -313 -154 -637 -160 -933 -19 -280 134 -500 395 -586 697 -109 382
14 803 313 1066 102 90 154 125 264 177 209 99 451 125 688 75z m-1507 -506
c9 -22 -1 -34 -30 -34 -17 0 -24 6 -24 18 0 10 3 22 7 25 12 13 41 7 47 -9z
m2610 1 c3 -8 -2 -21 -10 -29 -8 -8 -21 -13 -29 -10 -15 6 -20 35 -8 47 12 12
41 7 47 -8z m-2510 -667 c3 -13 6 -33 6 -45 0 -22 -3 -23 -105 -23 -116 0
-120 3 -79 57 24 32 27 33 98 33 68 0 74 -2 80 -22z m2530 -18 c14 -22 26 -42
26 -45 0 -3 -46 -4 -102 -3 l-103 3 3 30 c5 53 7 55 80 55 l69 0 27 -40z
m-2636 -344 c3 -24 0 -27 -20 -24 -26 3 -37 36 -16 49 20 13 33 5 36 -25z
m2611 20 c17 -20 2 -48 -23 -44 -24 3 -34 37 -14 49 18 12 24 11 37 -5z
m-2120 -400 l42 -43 -85 -77 c-75 -68 -87 -76 -105 -66 -17 9 -21 20 -21 63 0
49 2 54 57 109 32 32 60 58 63 58 3 0 25 -20 49 -44z m-461 -3 c13 -26 4 -43
-23 -43 -27 0 -40 26 -24 46 16 19 37 17 47 -3z m2546 -6 c16 -25 -16 -56 -38
-37 -19 15 -20 32 -4 48 15 15 28 11 42 -11z m-2264 -232 c7 -8 10 -22 6 -30
-7 -20 -55 -20 -62 0 -7 17 12 45 31 45 7 0 18 -7 25 -15z m2030 -11 c11 -12
10 -18 -3 -32 -16 -15 -18 -15 -33 0 -19 18 -12 48 9 48 8 0 20 -7 27 -16z
m-270 -289 c0 -27 -26 -40 -46 -24 -19 16 -18 36 3 47 24 14 43 4 43 -23z
m-1159 -161 c17 -21 0 -49 -32 -49 -24 0 -36 23 -25 51 7 19 40 18 57 -2z
m760 0 c17 -21 0 -49 -32 -49 -18 0 -25 6 -27 24 -6 38 34 55 59 25z m-383
-148 c4 -21 -14 -37 -35 -29 -14 5 -18 35 -6 47 12 12 38 1 41 -18z"/>
<path d="M2345 2879 c-71 -54 -132 -99 -136 -99 -3 0 -18 9 -33 21 l-26 20
-105 -80 c-58 -45 -108 -81 -111 -81 -2 0 -27 18 -55 40 -28 22 -55 40 -61 40
-5 0 -81 -54 -168 -120 -134 -101 -164 -120 -194 -120 -34 0 -36 -2 -36 -34 0
-64 30 -206 64 -302 66 -183 171 -331 324 -455 274 -222 624 -277 968 -154
141 50 241 114 354 225 133 130 203 238 264 408 27 76 56 219 56 278 l0 34
-146 0 -146 0 -142 102 c-77 56 -225 164 -328 240 -103 76 -193 138 -200 137
-7 0 -71 -45 -143 -100z m229 -50 c253 -183 426 -313 426 -320 0 -5 -39 -9
-87 -9 l-88 0 -180 136 c-99 75 -185 138 -192 141 -7 3 -39 -16 -72 -42 -51
-40 -62 -45 -80 -35 -12 6 -21 15 -21 20 0 11 199 160 213 160 5 0 41 -23 81
-51z m-339 -174 c44 -35 83 -65 87 -65 3 0 31 20 61 45 31 25 61 45 67 45 13
0 224 -157 228 -171 7 -17 -80 -9 -113 11 l-32 20 -52 -125 c-29 -69 -56 -127
-61 -130 -14 -9 -58 118 -65 193 l-7 72 -82 0 c-50 0 -87 5 -94 12 -15 15 -15
17 -48 -85 -16 -49 -34 -88 -39 -88 -6 0 -15 24 -21 53 l-10 53 -87 3 c-48 1
-87 6 -86 10 0 7 260 211 269 211 3 1 41 -28 85 -64z m-389 -29 c10 -8 17 -16
14 -19 -3 -2 -36 -27 -74 -55 -55 -42 -77 -52 -107 -52 -22 0 -39 3 -39 8 1 9
162 131 176 131 5 1 19 -5 30 -13z m144 -425 l0 -38 -50 -7 c-86 -11 -145 -94
-125 -173 16 -63 79 -113 144 -113 30 0 31 -1 31 -45 l0 -45 -40 0 c-145 0
-260 160 -217 301 31 100 107 159 205 159 l52 0 0 -39z m160 -51 c0 -89 0 -90
25 -90 24 0 24 2 27 88 l3 87 43 3 42 3 0 -230 0 -231 -40 0 -40 0 -2 83 c0
45 -1 88 -1 95 1 7 -11 12 -28 12 l-29 0 0 -95 0 -95 -40 0 -40 0 0 230 0 230
40 0 40 0 0 -90z m310 -140 l0 -230 -40 0 -40 0 0 230 0 230 40 0 40 0 0 -230z
m180 40 l0 -190 55 0 55 0 0 -40 0 -40 -95 0 -95 0 0 230 0 230 40 0 40 0 0
-190z m448 148 l-3 -43 -87 4 -88 3 0 -51 0 -51 50 0 50 0 0 -45 0 -45 -50 0
-50 0 0 -55 0 -55 90 0 90 0 0 -40 0 -40 -130 0 -130 0 0 230 0 230 131 0 130
0 -3 -42z"/>
</g>
</svg>
